# xmcd CD database file generated by Grip 3.1.1
# 
# Track frame offsets:
#       150
#       14533
#       25965
#       36540
#       50548
#       61738
#       75363
#       89163
#       101065
#       115073
#       126143
#       139968
#       150400
#       163875
# 
# Disc length: 2300 seconds
# 
# Revision: 2
# Processed by: cddbd v1.4PL0 Copyright (c) Steve Scherf et al.
# Submitted via: Grip 3.1.1
# 
DISCID=bb08fa0e
DTITLE=Ella Fitzgerald - Gold
DYEAR=1900
DGENRE=Blues
TTITLE0=How High The Moon
TTITLE1=It's Only A Paper Moon
TTITLE2=I Can't Give You Anything But Love
TTITLE3=Oh! Lady Be Good
TTITLE4=That Old Black Magic
TTITLE5=You'll Have To Swing It (Mr. Paganini)
TTITLE6=Smooth Sailing
TTITLE7=Sing Song Swing
TTITLE8=You'll Never Know
TTITLE9=Flying Home
TTITLE10=I Can't Get Started
TTITLE11=Taking A Chance On Love
TTITLE12=We Can't Go On This Way
TTITLE13=Lover Come Back To Me
EXTD=
EXTT0=
EXTT1=
EXTT2=
EXTT3=
EXTT4=
EXTT5=
EXTT6=
EXTT7=
EXTT8=
EXTT9=
EXTT10=
EXTT11=
EXTT12=
EXTT13=
PLAYORDER=
